# xmcd CD database file
# Copyright (C) 1995 Ti Kan
#
# Track frame offsets:
#	150
#	17882
#	35947
#	57352
#	69759
#	81113
#	98490
#	115527
#	134078
#
# Disc length: 2021 seconds
#
# Revision: 1
# Processed by: cddbd v1.4b41PL1 Copyright (c) Steve Scherf et al.
# Submitted via: NotifyCDPlayer(CDDB) 1.07
#
DISCID=7307e309
DTITLE=Mönsterås Blues Band - Knäpp din blus
DYEAR=1900
DGENRE=
TTITLE0=Jag ser fram emot den dagen
TTITLE1=Lugna dagar
TTITLE2=Solsken
TTITLE3=Blues för dig
TTITLE4=Lucia
TTITLE5=STA blues
TTITLE6=Sav
TTITLE7=Innan timmarna går
TTITLE8=Slår det dig
EXTD=
EXTT0=
EXTT1=
EXTT2=
EXTT3=
EXTT4=
EXTT5=
EXTT6=
EXTT7=
EXTT8=
PLAYORDER=
